<?xml version="1.0" encoding="utf-8"?>
<!-- Generator: Adobe Illustrator 16.0.0, SVG Export Plug-In . SVG Version: 6.00 Build 0)  -->
<!DOCTYPE svg PUBLIC "-//W3C//DTD SVG 1.1//EN" "http://www.w3.org/Graphics/SVG/1.1/DTD/svg11.dtd">
<svg version="1.1" id="Layer_1" xmlns="http://www.w3.org/2000/svg" xmlns:xlink="http://www.w3.org/1999/xlink" x="0px" y="0px"
	 width="750.667px" height="346.667px" viewBox="0 0 750.667 346.667" enable-background="new 0 0 750.667 346.667"
	 xml:space="preserve">
<g opacity="0.7">
	<g>
		<path fill="none" stroke="#FBB040" stroke-width="2" stroke-linecap="round" stroke-linejoin="round" d="M95.127,23.489
			c0.016,0.306,21.008-1.331,21.02-1.102c0.012,0.234-19.99,3.035-19.975,3.335c0.031,0.585,56.944-3.744,56.983-2.986
			c0.044,0.846-57.375,6.049-57.341,6.7c0.063,1.195,100.789-6.492,100.852-5.285c0.068,1.302-102.685,7.801-102.625,8.957
			c0.035,0.67,104.869-6.978,104.947-5.5c0.068,1.29-105.209,7.605-105.162,8.516c0.052,0.994,104.706-6.058,104.736-5.489
			c0.069,1.313-104.423,6.723-104.369,7.765c0.068,1.304,104.654-6.701,104.718-5.488c0.042,0.789-104.609,6.653-104.533,8.122
			c0.037,0.693,103.87-6.806,103.941-5.447c0.044,0.844-105.678,5.994-105.596,7.556c0.07,1.346,107.502-6.959,107.572-5.638
			c0.071,1.362-106.347,7.023-106.271,8.461c0.038,0.72,104.88-6.403,104.927-5.499c0.058,1.096-103.175,6.25-103.094,7.798
			c0.054,1.033,101.109-6.037,101.147-5.301c0.049,0.924-104.572,7.322-104.537,7.997c0.075,1.426,107.553-6.937,107.621-5.64
			c0.03,0.576-103.923,7.791-103.866,8.879c0.079,1.5,101.097-6.081,101.138-5.3c0.042,0.816-63.144,5.433-63.119,5.912
			c0.042,0.809,64.162-4.036,64.197-3.365c0.03,0.585-41.766,3.662-41.734,4.255c0.025,0.487,39.929-2.681,39.96-2.094"/>
		<g>
			<path fill="none" stroke="#6D6E71" stroke-width="2" stroke-linecap="round" stroke-linejoin="round" d="M116.114,22.855
				c0.011,0.201,15.102-0.935,15.109-0.792c0.012,0.227,27.879,0.875,27.898,1.252c0.005,0.091,12.866-0.786,12.872-0.675
				c0.007,0.142,24.645,2.319,24.656,2.543c0,0.01,1.504-0.092,1.505-0.079c0.001,0.021-1.026,3.998-1.025,4.028
				c0,0.01,2.648-0.148,2.649-0.139c0.002,0.051-3.001,2.516-3,2.546c0,0.01,3.809-0.212,3.81-0.2
				c0.003,0.06-2.805,3.427-2.803,3.469c0,0.012,2.11-0.124,2.111-0.111c0.002,0.054-2.041,3.022-2.038,3.068
				c0,0.009,0.939-0.058,0.939-0.049c0.001,0.021-2.344,2.569-2.342,2.607c0,0.007,4.114-0.229,4.115-0.216
				c0.001,0.024-3.307,3.432-3.304,3.495c0,0.006,0.593-0.036,0.593-0.031c0.001,0.03,0.013,3.328,0.015,3.369
				c0,0.01,0.938-0.054,0.938-0.049c0.001,0.032-0.574,2.432-0.573,2.454c0,0.008,2.143-0.126,2.143-0.112
				c0.003,0.055-2.5,3.425-2.497,3.48c0,0.008,0.937-0.061,0.937-0.049c0.002,0.032-2.604,2.414-2.604,2.435
				c0,0.012,4.29-0.23,4.29-0.225"/>
			<path fill="none" stroke="#6D6E71" stroke-width="2" stroke-linecap="round" stroke-linejoin="round" d="M94.602,23.042
				c0.016,0.312,21.501-1.362,21.514-1.127c0.013,0.24-20.481,3.054-20.465,3.361c0,0.009,0.085-0.017,0.086-0.004
				c0.003,0.062-1.893,3.746-1.89,3.793c0,0.011,0.931-0.06,0.931-0.049c0.003,0.049-1.248,3.601-1.246,3.644
				c0,0.006,1.931-0.114,1.931-0.101c0.002,0.046-2.143,3.084-2.142,3.117c0,0.009,1.716-0.095,1.716-0.09
				c0.002,0.034-1.347,2.338-1.345,2.365c0,0.012,1.694-0.1,1.694-0.089c0.001,0.023-1.507,2.679-1.504,2.723
				c0,0.006,0.913-0.06,0.913-0.048c0.001,0.026-2.567,2.106-2.565,2.156c0.001,0.012,4.54-0.25,4.541-0.238
				c0.003,0.057-3.239,3.001-3.235,3.062c0,0.006,1.891-0.107,1.892-0.099c0.002,0.03-1.552,2.433-1.55,2.476
				c0,0.009,0.918-0.055,0.919-0.048c0.001,0.034-2.811,2.641-2.81,2.666c0,0.013,4.577-0.251,4.577-0.24
				c0.001,0.025-2.679,3.529-2.676,3.576c0,0.013,0.914-0.055,0.915-0.048c0.002,0.035,0.954,2.533,0.955,2.554
				c0.024,0.459,35.651-2.25,35.671-1.87c0.01,0.194,13.811,1.146,13.821,1.343c0.007,0.132,11.032-0.737,11.041-0.579
				c0.02,0.371,28.876,0.878,28.897,1.273c0.011,0.199,15.405-0.921,15.411-0.808"/>
		</g>
	</g>
</g>
<text transform="matrix(1 0 0 1 109.1035 46.9712)" font-family="'MarkerFelt-Thin'" font-size="21">score = 3</text>
<g opacity="0.7">
	<g>
		<path fill="none" stroke="#FBB040" stroke-width="2" stroke-linecap="round" stroke-linejoin="round" d="M304.127,23.49
			c0.016,0.301,20.697-1.311,20.709-1.085c0.012,0.23-19.679,3.024-19.663,3.319c0.031,0.599,58.31-3.834,58.35-3.058
			c0.046,0.866-58.743,6.105-58.708,6.772c0.068,1.298,109.783-7.069,109.852-5.757c0.074,1.416-111.69,8.171-111.625,9.428
			c0.039,0.729,113.862-7.577,113.946-5.972c0.073,1.4-114.213,7.999-114.161,8.988c0.057,1.08,113.704-6.578,113.736-5.96
			c0.074,1.427-113.429,7.105-113.37,8.236c0.074,1.418,113.649-7.277,113.717-5.959c0.045,0.857-113.615,6.999-113.532,8.593
			c0.04,0.754,112.864-7.395,112.941-5.919c0.048,0.917-114.685,6.333-114.596,8.027c0.077,1.462,116.495-7.545,116.57-6.109
			c0.078,1.477-115.352,7.373-115.27,8.933c0.041,0.782,113.875-6.953,113.927-5.971c0.062,1.192-112.183,6.586-112.094,8.27
			c0.059,1.122,110.105-6.571,110.147-5.772c0.053,1.003-113.575,7.735-113.537,8.469c0.081,1.549,116.545-7.521,116.62-6.112
			c0.032,0.625-112.928,8.168-112.866,9.35c0.085,1.63,110.092-6.619,110.137-5.772c0.049,0.929-71.856,5.824-71.828,6.369
			c0.049,0.917,72.866-4.58,72.906-3.821c0.036,0.683-48.812,3.932-48.776,4.624c0.03,0.574,46.966-3.154,47.002-2.463
			c0.007,0.123-9.133,2.768-9.126,2.899c0.008,0.162,12.557-0.75,12.562-0.658"/>
		<g>
			<path fill="none" stroke="#6D6E71" stroke-width="2" stroke-linecap="round" stroke-linejoin="round" d="M325.447,22.871
				c0.011,0.21,15.821-0.979,15.829-0.83c0.012,0.234,28.774,0.816,28.795,1.206c0.005,0.089,12.48-0.763,12.486-0.654
				c0.01,0.183,32.077,1.862,32.093,2.153c0,0.009,1.504-0.093,1.505-0.079c0.001,0.021-1.027,3.998-1.025,4.027
				c0,0.01,2.648-0.148,2.648-0.139c0.003,0.051-3.001,2.517-2.999,2.547c0,0.01,3.809-0.212,3.81-0.2
				c0.003,0.06-2.805,3.426-2.803,3.469c0.001,0.012,2.109-0.123,2.11-0.11c0.003,0.053-2.04,3.023-2.037,3.068
				c0,0.009,0.939-0.058,0.939-0.049c0.002,0.021-2.344,2.568-2.342,2.607c0,0.007,4.113-0.229,4.114-0.216
				c0.001,0.024-3.308,3.432-3.304,3.494c0,0.006,0.594-0.036,0.594-0.031c0.002,0.031,0.013,3.329,0.015,3.369
				c0.001,0.009,0.938-0.054,0.938-0.049c0.002,0.032-0.574,2.431-0.573,2.454c0,0.007,2.143-0.126,2.144-0.112
				c0.003,0.055-2.5,3.425-2.497,3.48c0,0.008,0.936-0.061,0.937-0.049c0.001,0.035-2.604,2.85-2.603,2.873
				c0,0.012,4.289-0.23,4.29-0.225"/>
			<path fill="none" stroke="#6D6E71" stroke-width="2" stroke-linecap="round" stroke-linejoin="round" d="M303.602,23.046
				c0.016,0.307,21.143-1.339,21.155-1.109c0.012,0.235-20.123,3.04-20.106,3.343c0,0.009,0.085-0.017,0.086-0.005
				c0.003,0.062-1.893,3.746-1.89,3.794c0,0.01,0.931-0.06,0.932-0.049c0.003,0.048-1.249,3.6-1.247,3.644
				c0,0.006,1.932-0.114,1.932-0.101c0.002,0.046-2.144,3.084-2.142,3.117c0,0.009,1.716-0.095,1.716-0.09
				c0.002,0.034-1.347,2.338-1.345,2.365c0,0.012,1.694-0.1,1.694-0.089c0.001,0.023-1.507,2.679-1.504,2.723
				c0,0.006,0.913-0.06,0.913-0.048c0.001,0.026-2.567,2.106-2.565,2.156c0,0.012,4.54-0.25,4.541-0.238
				c0.003,0.057-3.238,3.001-3.235,3.061c0,0.006,1.892-0.107,1.893-0.099c0.001,0.031-1.553,2.433-1.55,2.476
				c0,0.009,0.919-0.055,0.919-0.048c0.001,0.034-2.812,2.641-2.811,2.666c0.001,0.013,4.577-0.251,4.578-0.24
				c0.001,0.025-2.679,3.529-2.677,3.576c0.001,0.013,0.915-0.055,0.916-0.048c0.002,0.035,0.953,2.533,0.954,2.554
				c0.025,0.469,36.427-2.299,36.446-1.91c0.011,0.205,14.644,1.091,14.655,1.299c0.007,0.136,11.344-0.758,11.353-0.595
				c0.019,0.368,28.702,0.89,28.723,1.283c0.013,0.24,18.566-1.11,18.574-0.974"/>
		</g>
	</g>
</g>
<g opacity="0.7">
	<g>
		<path fill="none" stroke="#FBB040" stroke-width="2" stroke-linecap="round" stroke-linejoin="round" d="M232.127,23.491
			c0.007,0.135,8.97-0.572,8.975-0.47c0.005,0.097-7.936,2.58-7.93,2.704c0.022,0.414,40.064-2.637,40.092-2.101
			c0.032,0.599-40.474,5.354-40.45,5.815c0.025,0.471,37.83-2.459,37.854-1.984c0.026,0.506-39.651,5.206-39.627,5.656
			c0.014,0.264,41.919-2.781,41.95-2.199c0.027,0.52-42.184,4.848-42.165,5.214c0.021,0.392,41.727-2.411,41.739-2.188
			c0.027,0.522-41.394,4.049-41.372,4.463c0.027,0.514,41.696-2.665,41.721-2.187c0.017,0.314-41.566,4.234-41.536,4.82
			c0.014,0.273,40.916-2.681,40.944-2.146c0.018,0.342-42.631,3.623-42.599,4.255c0.028,0.53,44.547-2.857,44.574-2.336
			c0.029,0.556-43.304,4.571-43.273,5.159c0.015,0.284,41.912-2.553,41.93-2.197c0.022,0.428-40.129,3.893-40.098,4.497
			c0.021,0.407,38.135-2.289,38.15-1.999c0.02,0.369-41.554,4.426-41.54,4.695c0.029,0.562,44.597-2.85,44.623-2.338
			c0.012,0.228-40.892,5.146-40.87,5.577c0.031,0.591,38.125-2.306,38.142-1.999c0.014,0.267-20.339,3.514-20.331,3.67
			c0.015,0.285,21.396-1.357,21.408-1.122"/>
		<g>
			<path fill="none" stroke="#6D6E71" stroke-width="2" stroke-linecap="round" stroke-linejoin="round" d="M241.477,23.523
				c0.012,0.228,17.143-1.06,17.151-0.899c0.006,0.111,13.505,1.822,13.515,2.006c0,0.007,1.096-0.065,1.097-0.057
				c0.001,0.027-2.584,3.928-2.582,3.971c0,0.009,1.503-0.093,1.503-0.079c0.001,0.021-1.025,3.998-1.024,4.027
				c0,0.01,2.648-0.148,2.648-0.139c0.002,0.051-3,2.517-2.999,2.547c0,0.01,3.808-0.213,3.809-0.2
				c0.003,0.059-2.804,3.426-2.802,3.468c0.001,0.012,2.11-0.124,2.11-0.111c0.003,0.054-2.04,3.023-2.037,3.068
				c0,0.009,0.939-0.058,0.939-0.049c0.001,0.021-2.343,2.569-2.341,2.608c0,0.007,4.114-0.229,4.114-0.216
				c0.001,0.024-3.307,3.432-3.304,3.494c0,0.006,0.593-0.036,0.594-0.031c0.001,0.031,0.013,3.329,0.015,3.369
				c0,0.009,0.938-0.054,0.938-0.049c0.002,0.031-0.575,2.431-0.574,2.454c0,0.007,2.143-0.126,2.144-0.112
				c0.002,0.044-2.502,2.391-2.5,2.436c0,0.008,0.938-0.061,0.938-0.049"/>
			<path fill="none" stroke="#6D6E71" stroke-width="2" stroke-linecap="round" stroke-linejoin="round" d="M231.657,23.021
				c0.007,0.137,9.102-0.58,9.107-0.477c0.005,0.098-8.068,2.585-8.062,2.711c0,0.009,0.035-0.013,0.036-0.001
				c0.003,0.062-1.848,3.744-1.846,3.791c0.001,0.01,0.89-0.057,0.891-0.046c0.002,0.048-1.213,3.599-1.211,3.642
				c0,0.006,1.898-0.112,1.899-0.1c0.002,0.046-2.116,3.083-2.114,3.116c0,0.009,1.691-0.093,1.691-0.088
				c0.002,0.034-1.326,2.337-1.325,2.364c0,0.011,1.675-0.099,1.676-0.088c0.001,0.023-1.492,2.678-1.49,2.722
				c0,0.006,0.901-0.06,0.901-0.047c0.001,0.026-2.559,2.106-2.556,2.156c0,0.012,4.533-0.25,4.533-0.238
				c0.003,0.057-3.236,3.001-3.233,3.061c0,0.006,1.892-0.107,1.893-0.099c0.001,0.031-1.557,2.433-1.555,2.477
				c0,0.009,0.925-0.055,0.925-0.048c0.002,0.035-2.822,2.641-2.82,2.666c0.001,0.013,4.589-0.251,4.59-0.24
				c0.001,0.025-2.697,3.53-2.695,3.577c0,0.014,0.937-0.057,0.937-0.049c0.002,0.035,0.928,2.535,0.929,2.556
				c0.011,0.207,15.123-0.965,15.131-0.793"/>
		</g>
	</g>
</g>
<g opacity="0.7">
	<g>
		<path fill="none" stroke="#FBB040" stroke-width="2" stroke-linecap="round" stroke-linejoin="round" d="M475.127,23.49
			c0.016,0.301,20.697-1.311,20.709-1.085c0.013,0.23-19.679,3.024-19.664,3.319c0.032,0.599,58.311-3.834,58.351-3.058
			c0.046,0.866-58.743,6.105-58.708,6.772c0.068,1.298,109.782-7.069,109.852-5.757c0.074,1.416-111.689,8.171-111.624,9.428
			c0.038,0.729,113.861-7.577,113.945-5.972c0.073,1.4-114.211,7.999-114.159,8.988c0.057,1.08,113.702-6.578,113.734-5.96
			c0.074,1.427-113.428,7.105-113.368,8.236c0.074,1.417,113.648-7.277,113.717-5.959c0.045,0.857-113.615,6.999-113.532,8.593
			c0.04,0.754,112.864-7.395,112.941-5.919c0.048,0.917-114.685,6.333-114.596,8.027c0.077,1.462,116.495-7.545,116.57-6.109
			c0.078,1.477-115.351,7.373-115.27,8.933c0.041,0.782,113.874-6.953,113.926-5.971c0.062,1.192-112.181,6.586-112.093,8.27
			c0.059,1.122,110.104-6.571,110.146-5.772c0.053,1.003-113.574,7.735-113.535,8.469c0.081,1.549,116.545-7.521,116.619-6.112
			c0.032,0.625-112.928,8.168-112.865,9.35c0.085,1.63,110.092-6.619,110.137-5.772c0.049,0.929-71.856,5.824-71.828,6.369
			c0.049,0.917,72.866-4.58,72.906-3.821c0.036,0.683-48.812,3.932-48.776,4.624c0.03,0.574,46.966-3.154,47.002-2.463
			c0.007,0.123-9.133,2.768-9.126,2.899c0.008,0.162,12.557-0.75,12.562-0.658"/>
		<g>
			<path fill="none" stroke="#6D6E71" stroke-width="2" stroke-linecap="round" stroke-linejoin="round" d="M496.447,22.871
				c0.011,0.21,15.821-0.979,15.829-0.83c0.012,0.234,28.774,0.816,28.795,1.206c0.004,0.089,12.479-0.763,12.485-0.654
				c0.01,0.183,32.077,1.862,32.093,2.153c0,0.009,1.504-0.093,1.505-0.079c0.001,0.021-1.027,3.998-1.025,4.028
				c0.001,0.01,2.648-0.148,2.648-0.139c0.003,0.051-3,2.517-2.999,2.547c0.001,0.01,3.809-0.212,3.81-0.2
				c0.003,0.06-2.805,3.426-2.803,3.469c0.001,0.012,2.11-0.123,2.111-0.11c0.003,0.053-2.041,3.023-2.038,3.068
				c0,0.009,0.939-0.058,0.939-0.049c0.002,0.021-2.344,2.568-2.342,2.607c0,0.007,4.114-0.229,4.115-0.216
				c0.001,0.024-3.308,3.432-3.304,3.494c0,0.006,0.594-0.036,0.594-0.031c0.001,0.031,0.013,3.329,0.015,3.369
				c0.001,0.009,0.938-0.054,0.938-0.049c0.002,0.032-0.574,2.431-0.573,2.454c0,0.007,2.142-0.126,2.143-0.112
				c0.003,0.055-2.499,3.425-2.496,3.48c0,0.008,0.936-0.061,0.936-0.049c0.002,0.035-2.603,2.85-2.602,2.873
				c0,0.012,4.289-0.23,4.29-0.225"/>
			<path fill="none" stroke="#6D6E71" stroke-width="2" stroke-linecap="round" stroke-linejoin="round" d="M474.602,23.046
				c0.016,0.307,21.144-1.339,21.155-1.109c0.013,0.235-20.122,3.04-20.106,3.343c0,0.009,0.086-0.017,0.087-0.005
				c0.003,0.062-1.893,3.746-1.891,3.793c0.001,0.011,0.932-0.059,0.932-0.048c0.003,0.048-1.249,3.6-1.246,3.644
				c0,0.006,1.931-0.114,1.932-0.101c0.002,0.046-2.144,3.084-2.142,3.117c0.001,0.009,1.715-0.095,1.716-0.09
				c0.001,0.034-1.347,2.338-1.346,2.365c0.001,0.012,1.695-0.1,1.695-0.089c0.001,0.023-1.507,2.679-1.505,2.723
				c0,0.006,0.913-0.06,0.914-0.048c0.001,0.026-2.567,2.106-2.564,2.156c0,0.012,4.539-0.25,4.539-0.238
				c0.003,0.056-3.237,3.001-3.234,3.061c0,0.006,1.892-0.107,1.892-0.099c0.002,0.031-1.552,2.433-1.549,2.476
				c0,0.009,0.917-0.055,0.917-0.048c0.002,0.034-2.81,2.641-2.809,2.666c0.001,0.013,4.576-0.251,4.577-0.24
				c0.001,0.025-2.679,3.529-2.676,3.576c0,0.013,0.913-0.055,0.913-0.048c0.002,0.035,0.956,2.533,0.957,2.554
				c0.024,0.469,36.425-2.299,36.444-1.91c0.011,0.205,14.644,1.091,14.655,1.299c0.007,0.136,11.344-0.758,11.353-0.595
				c0.019,0.368,28.702,0.89,28.723,1.283c0.013,0.24,18.566-1.11,18.574-0.974"/>
		</g>
	</g>
</g>
<g opacity="0.7">
	<g>
		<path fill="none" stroke="#FBB040" stroke-width="2" stroke-linecap="round" stroke-linejoin="round" d="M650.127,23.491
			c0.008,0.136,9.042-0.577,9.048-0.474c0.005,0.098-8.009,2.583-8.002,2.708c0.028,0.542,52.737-3.468,52.773-2.766
			c0.042,0.784-53.163,5.876-53.132,6.479c0.047,0.896,74.806-4.828,74.854-3.923c0.051,0.973-76.671,6.73-76.626,7.594
			c0.026,0.503,78.891-5.245,78.949-4.137c0.051,0.972-79.2,6.468-79.164,7.154c0.039,0.746,78.715-4.553,78.737-4.126
			c0.052,0.987-78.412,5.62-78.371,6.402c0.052,0.978,78.673-5.035,78.721-4.125c0.03,0.593-78.593,5.655-78.534,6.759
			c0.027,0.52,77.889-5.103,77.942-4.085c0.033,0.637-79.66,5.016-79.599,6.193c0.053,1.009,81.521-5.267,81.574-4.275
			c0.054,1.03-80.33,6.012-80.273,7.099c0.028,0.54,78.895-4.814,78.93-4.136c0.044,0.82-77.157,5.277-77.097,6.436
			c0.041,0.774,75.121-4.489,75.15-3.938c0.036,0.695-78.566,6.127-78.54,6.635c0.056,1.069,81.571-5.25,81.622-4.277
			c0.022,0.431-77.911,6.7-77.868,7.516c0.059,1.125,75.11-4.522,75.141-3.938c0.029,0.56-43.198,4.539-43.182,4.867
			c0.03,0.565,44.234-2.788,44.259-2.319c0.014,0.252-17.828,2.746-17.814,3.001c0.011,0.193,16.029-1.073,16.042-0.841"/>
		<g>
			<path fill="none" stroke="#6D6E71" stroke-width="2" stroke-linecap="round" stroke-linejoin="round" d="M659.403,23.527
				c0.012,0.224,16.865-1.043,16.874-0.884c0.016,0.299,36.771,0.288,36.796,0.786c0.006,0.108,15.157-0.926,15.164-0.794
				c0.002,0.026-2.585,3.928-2.583,3.971c0.001,0.009,1.503-0.093,1.504-0.079c0.001,0.021-1.025,3.998-1.023,4.027
				c0,0.01,2.647-0.148,2.648-0.139c0.003,0.051-3.001,2.517-3,2.547c0.001,0.01,3.81-0.213,3.811-0.2
				c0.003,0.059-2.806,3.426-2.804,3.468c0,0.012,2.111-0.124,2.112-0.111c0.003,0.054-2.042,3.023-2.04,3.068
				c0.001,0.009,0.942-0.058,0.942-0.049c0.001,0.021-2.347,2.569-2.345,2.608c0.001,0.007,4.117-0.229,4.118-0.216
				c0.001,0.024-3.31,3.432-3.307,3.494c0.001,0.006,0.596-0.036,0.597-0.031c0.001,0.031,0.01,3.329,0.012,3.369
				c0.001,0.009,0.941-0.055,0.942-0.049c0.001,0.032-0.579,2.432-0.577,2.454c0,0.007,2.146-0.127,2.146-0.113
				c0.003,0.055-2.504,3.426-2.502,3.48c0.001,0.008,0.942-0.061,0.942-0.049"/>
			<path fill="none" stroke="#6D6E71" stroke-width="2" stroke-linecap="round" stroke-linejoin="round" d="M649.657,23.021
				c0.007,0.136,9.04-0.576,9.046-0.474c0.005,0.098-8.008,2.583-8.001,2.708c0,0.009,0.033-0.013,0.034-0.001
				c0.003,0.062-1.846,3.744-1.844,3.791c0.001,0.01,0.886-0.057,0.886-0.046c0.003,0.049-1.209,3.599-1.206,3.642
				c0,0.005,1.891-0.112,1.892-0.1c0.002,0.046-2.109,3.083-2.107,3.116c0,0.008,1.682-0.093,1.683-0.088
				c0.001,0.034-1.316,2.337-1.315,2.364c0.001,0.011,1.664-0.098,1.664-0.087c0.001,0.023-1.481,2.678-1.479,2.721
				c0,0.006,0.888-0.059,0.889-0.047c0.001,0.026-2.546,2.106-2.543,2.155c0,0.012,4.518-0.248,4.518-0.237
				c0.003,0.057-3.222,3-3.218,3.06c0,0.006,1.875-0.106,1.875-0.098c0.002,0.031-1.539,2.432-1.537,2.476
				c0.001,0.009,0.906-0.054,0.906-0.047c0.002,0.034-2.802,2.64-2.801,2.665c0.001,0.013,4.567-0.25,4.568-0.239
				c0.001,0.025-2.677,3.529-2.674,3.576c0,0.013,0.912-0.055,0.912-0.048c0.002,0.035,0.952,2.534,0.954,2.554
				c0.02,0.39,29.967-1.895,29.983-1.572c0.007,0.119,8.349,1.509,8.354,1.63c0.012,0.224,18.551-1.243,18.564-0.973"/>
		</g>
	</g>
</g>
<g opacity="0.7">
	<g>
		<path fill="none" stroke="#27AAE1" stroke-width="2" stroke-linecap="round" stroke-linejoin="round" d="M143.127,111.489
			c0.013,0.243,16.531-1.048,16.54-0.866c0.01,0.183-15.507,2.866-15.495,3.101c0.034,0.649,63.342-4.163,63.386-3.322
			c0.049,0.939-63.782,6.312-63.744,7.035c0.077,1.458,123.654-7.957,123.731-6.484c0.083,1.591-125.578,8.743-125.503,10.156
			c0.059,1.121,174.884-11.646,175.014-9.173c0.112,2.148-175.309,10.673-175.229,12.189c0.12,2.278,239.029-13.835,239.098-12.531
			c0.157,3.002-238.855,12.426-238.731,14.807c0.166,3.162,252.557-16.184,252.711-13.244c0.1,1.905-252.711,12.335-252.526,15.878
			c0.088,1.682,251.761-16.495,251.934-13.203c0.106,2.027-253.785,11.563-253.588,15.312
			c0.171,3.261,255.396-16.599,255.564-13.394c0.17,3.254-254.444,12.779-254.264,16.217c0.091,1.743,252.805-15.446,252.919-13.255
			c0.141,2.668-251.284,11.785-251.086,15.554c0.131,2.502,249.046-14.839,249.14-13.057c0.116,2.229-252.615,14.124-252.53,15.752
			c0.181,3.456,255.448-16.538,255.612-13.396c0.073,1.394-251.996,14-251.857,16.636c0.19,3.633,249.031-14.947,249.13-13.057
			c0.156,2.985-231.433,12.977-231.341,14.729c0.15,2.874,232.293-14.563,232.418-12.181c0.134,2.557-183.223,9.07-183.086,11.661
			c0.116,2.225,181.172-12.177,181.312-9.502c0.09,1.712-133.446,7.95-133.35,9.776c0.094,1.799,136.733-8.188,136.787-7.169
			c0.038,0.72-109.06,6.352-108.983,7.803c0.077,1.475,108.045-6.77,108.103-5.665c0.031,0.595-66.503,5.945-66.474,6.52
			c0.028,0.53,66.997-4.339,67.04-3.514"/>
		<g>
			<path fill="none" stroke="#6D6E71" stroke-width="2" stroke-linecap="round" stroke-linejoin="round" d="M160.074,111.094
				c0.008,0.162,11.929-0.739,11.935-0.625c0.02,0.381,46.841-0.376,46.875,0.258c0.006,0.121,16.96-1.036,16.968-0.889
				c0.012,0.23,40.534,1.342,40.553,1.71c0.006,0.114,12.001-0.798,12.01-0.63c0.012,0.218,42.907,1.415,42.924,1.725
				c0.008,0.156,17.132-1.055,17.141-0.898c0.029,0.574,44.267-0.277,44.285,0.068c0,0.01,3.812-0.213,3.813-0.199
				c0.003,0.059-2.809,3.427-2.807,3.469c0.001,0.012,2.114-0.124,2.114-0.111c0.003,0.054-2.044,3.023-2.041,3.068
				c0,0.009,0.942-0.059,0.942-0.05c0.002,0.021-2.346,2.569-2.344,2.608c0,0.007,4.116-0.229,4.117-0.216
				c0.001,0.024-3.311,3.432-3.307,3.494c0,0.006,0.597-0.036,0.597-0.031c0.002,0.03,0.01,3.328,0.012,3.369
				c0.001,0.01,0.94-0.055,0.94-0.049c0.002,0.03-0.576,2.432-0.575,2.453c0,0.008,2.145-0.126,2.146-0.112
				c0.003,0.056-2.502,3.426-2.499,3.479c0,0.009,0.938-0.061,0.938-0.049c0.003,0.041-2.604,3.513-2.603,3.538
				c0.001,0.012,4.29-0.231,4.29-0.226c0.002,0.036-4.35,3.581-4.345,3.661c0,0.013,1.406-0.086,1.407-0.073
				c0.001,0.033,1.034,2.679,1.036,2.718c0,0.008,0.754-0.047,0.755-0.039"/>
			<path fill="none" stroke="#6D6E71" stroke-width="2" stroke-linecap="round" stroke-linejoin="round" d="M142.603,111.046
				c0.013,0.253,17.234-1.093,17.244-0.903c0.01,0.19-16.208,2.893-16.195,3.138c0,0.009,0.086-0.018,0.087-0.005
				c0.003,0.062-1.893,3.746-1.891,3.794c0,0.011,0.935-0.061,0.936-0.05c0.002,0.049-1.253,3.602-1.25,3.645
				c0,0.007,1.938-0.115,1.938-0.103c0.002,0.047-2.15,3.086-2.149,3.118c0,0.01,1.726-0.096,1.726-0.091
				c0.002,0.034-1.356,2.339-1.355,2.366c0.001,0.012,1.706-0.1,1.706-0.089c0.001,0.023-1.518,2.68-1.516,2.723
				c0,0.007,0.926-0.061,0.927-0.049c0.001,0.027-2.581,2.107-2.579,2.157c0.001,0.012,4.556-0.25,4.557-0.238
				c0.003,0.057-3.255,3.001-3.251,3.062c0,0.007,1.91-0.107,1.91-0.1c0.002,0.031-1.57,2.433-1.568,2.477
				c0,0.01,0.939-0.056,0.94-0.049c0.001,0.034-2.832,2.642-2.831,2.667c0,0.013,4.6-0.252,4.6-0.241
				c0.001,0.024-2.702,3.53-2.699,3.577c0,0.014,0.94-0.056,0.94-0.049c0.002,0.035,0.928,2.535,0.929,2.555
				c0.011,0.21,15.313-0.977,15.322-0.803c0.019,0.363,25.972,0.338,25.991,0.705c0.016,0.308,25.291-1.695,25.311-1.326
				c0.024,0.457,35.667,0.429,35.692,0.916c0.009,0.165,12.776-0.762,12.781-0.669c0.006,0.104,15.886,1.046,15.897,1.257
				c0.008,0.158,11-0.694,11.006-0.576c0.014,0.26,29.14,1.258,29.153,1.508c0.006,0.104,13.869-0.89,13.878-0.727
				c0.029,0.553,38.247,0.496,38.26,0.731c0.018,0.344,27.581-1.736,27.596-1.446"/>
		</g>
	</g>
</g>
<g opacity="0.7">
	<g>
		<path fill="none" stroke="#27AAE1" stroke-width="2" stroke-linecap="round" stroke-linejoin="round" d="M534.127,111.49
			c0.009,0.162,10.879-0.691,10.886-0.57c0.006,0.118-9.849,2.652-9.841,2.805c0.026,0.496,48.257-3.176,48.29-2.531
			c0.038,0.719-48.677,5.691-48.647,6.244c0.062,1.184,99.833-6.432,99.896-5.235c0.068,1.289-101.728,7.762-101.668,8.906
			c0.051,0.974,151.831-10.108,151.943-7.963c0.099,1.865-152.227,9.663-152.158,10.979c0.076,1.443,151.69-8.777,151.733-7.952
			c0.1,1.904-151.445,8.718-151.366,10.228c0.1,1.896,151.622-9.711,151.715-7.95c0.06,1.144-151.642,8.457-151.53,10.584
			c0.053,1.008,150.835-9.882,150.938-7.91c0.064,1.221-152.711,7.763-152.593,10.02c0.103,1.954,154.468-10.021,154.568-8.101
			c0.103,1.963-153.376,8.851-153.268,10.924c0.055,1.045,151.855-9.274,151.925-7.962c0.083,1.596-150.21,8.008-150.092,10.261
			c0.078,1.5,148.088-8.831,148.144-7.764c0.07,1.339-151.585,9.482-151.533,10.461c0.108,2.07,154.518-9.986,154.616-8.104
			c0.044,0.835-150.945,9.763-150.863,11.342c0.114,2.178,148.076-8.896,148.135-7.764c0.087,1.646-127.557,8.32-127.506,9.287
			c0.084,1.6,128.515-8.065,128.584-6.739c0.074,1.41-100.996,5.927-100.921,7.356c0.063,1.214,99.07-6.657,99.147-5.196
			c0.038,0.728-56.611,4.976-56.57,5.753c0.041,0.786,59.982-3.592,60.006-3.145"/>
		<g>
			<path fill="none" stroke="#6D6E71" stroke-width="2" stroke-linecap="round" stroke-linejoin="round" d="M545.394,111.413
				c0.011,0.208,15.613-0.966,15.621-0.818c0.013,0.236,29.104,0.794,29.124,1.188c0.005,0.087,12.273-0.75,12.279-0.645
				c0.014,0.258,45.034,1.066,45.055,1.475c0.02,0.359,36.65-2.451,36.679-1.922c0.001,0.021-1.029,3.997-1.028,4.027
				c0.001,0.01,2.651-0.148,2.651-0.139c0.003,0.051-3.003,2.516-3.001,2.547c0,0.01,3.811-0.213,3.812-0.199
				c0.003,0.06-2.807,3.426-2.805,3.469c0.001,0.012,2.112-0.124,2.112-0.111c0.003,0.054-2.041,3.022-2.039,3.068
				c0,0.008,0.94-0.059,0.941-0.05c0.001,0.021-2.346,2.569-2.344,2.607c0.001,0.008,4.115-0.229,4.115-0.216
				c0.002,0.024-3.307,3.433-3.304,3.495c0,0.005,0.594-0.036,0.594-0.031c0.002,0.03,0.014,3.328,0.016,3.368
				c0,0.01,0.938-0.054,0.938-0.049c0.002,0.031-0.574,2.432-0.573,2.454c0.001,0.008,2.142-0.126,2.143-0.112
				c0.003,0.055-2.499,3.425-2.496,3.479c0.001,0.008,0.936-0.061,0.937-0.049c0.002,0.04-2.602,3.511-2.6,3.537
				c0,0.012,4.287-0.23,4.288-0.225"/>
			<path fill="none" stroke="#6D6E71" stroke-width="2" stroke-linecap="round" stroke-linejoin="round" d="M533.657,111.029
				c0.008,0.16,10.69-0.681,10.697-0.561c0.006,0.116-9.66,2.646-9.652,2.795c0,0.009,0.035-0.014,0.036-0.002
				c0.003,0.062-1.848,3.743-1.846,3.79c0.001,0.011,0.891-0.056,0.891-0.046c0.003,0.049-1.214,3.6-1.211,3.643
				c0,0.006,1.898-0.112,1.899-0.1c0.002,0.046-2.117,3.082-2.115,3.115c0.001,0.009,1.691-0.093,1.692-0.088
				c0.002,0.034-1.326,2.337-1.324,2.364c0,0.011,1.676-0.099,1.676-0.088c0.001,0.023-1.493,2.678-1.491,2.722
				c0,0.006,0.901-0.06,0.902-0.048c0.001,0.026-2.56,2.106-2.557,2.155c0,0.013,4.534-0.249,4.534-0.237
				c0.003,0.058-3.236,3.002-3.233,3.062c0,0.007,1.893-0.107,1.893-0.1c0.002,0.031-1.558,2.434-1.555,2.478
				c0,0.009,0.926-0.056,0.926-0.049c0.002,0.034-2.822,2.641-2.821,2.666c0.001,0.013,4.59-0.252,4.591-0.24
				c0.001,0.024-2.698,3.529-2.695,3.576c0,0.014,0.937-0.056,0.937-0.049c0.002,0.035,0.928,2.535,0.929,2.556
				c0.013,0.239,17.753-1.129,17.764-0.932c0.013,0.242,17.284,0.916,17.297,1.161c0.008,0.155,12.894-0.862,12.903-0.676
				c0.02,0.376,29.361,0.846,29.382,1.248c0.009,0.171,13.244-0.791,13.25-0.694c0.007,0.133,20.292,0.756,20.306,1.026
				c0.02,0.367,26.491-1.665,26.506-1.39"/>
		</g>
	</g>
</g>
<text transform="matrix(1 0 0 1 247.2915 46.9712)" font-family="'MarkerFelt-Thin'" font-size="21">1</text>
<text transform="matrix(1 0 0 1 356.1465 46.4834)" font-family="'MarkerFelt-Thin'" font-size="21">5</text>
<text transform="matrix(1 0 0 1 526.5 46.4849)" font-family="'MarkerFelt-Thin'" font-size="21">4</text>
<text transform="matrix(1 0 0 1 684.0928 46.4834)" font-family="'MarkerFelt-Thin'" font-size="21">6</text>
<text transform="matrix(1 0 0 1 48.8535 49.0747)" font-family="'MarkerFelt-Thin'" font-size="27">B</text>
<text transform="matrix(1 0 0 1 48.8535 139.2832)" font-family="'MarkerFelt-Thin'" font-size="27">A</text>
<g opacity="0.7">
	<g>
		<path fill="none" stroke="#8DC63F" stroke-width="2" stroke-linecap="round" stroke-linejoin="round" d="M140.127,212.489
			c0.016,0.308,21.097-1.336,21.109-1.105c0.013,0.235-20.079,3.038-20.063,3.341c0.037,0.704,68.785-4.521,68.833-3.607
			c0.053,1.019-69.232,6.535-69.191,7.32c0.075,1.433,121.47-7.817,121.546-6.37c0.082,1.563-123.392,8.653-123.319,10.041
			c0.062,1.183,184.299-12.272,184.436-9.666c0.119,2.264-184.733,11.085-184.65,12.683c0.121,2.312,242.54-14.037,242.609-12.715
			c0.16,3.047-242.369,12.574-242.243,14.99c0.165,3.149,251.556-16.119,251.709-13.191c0.1,1.897-251.709,12.296-251.524,15.825
			c0.088,1.675,250.757-16.429,250.929-13.15c0.106,2.02-252.78,11.525-252.584,15.26c0.17,3.248,254.391-16.533,254.558-13.341
			c0.17,3.241-253.437,12.74-253.257,16.164c0.091,1.737,251.797-15.385,251.911-13.202c0.139,2.657-250.276,11.748-250.079,15.501
			c0.131,2.493,248.037-14.777,248.13-13.004c0.116,2.222-251.604,14.078-251.519,15.701c0.18,3.441,254.436-16.473,254.6-13.344
			c0.072,1.387-250.984,13.958-250.847,16.582c0.19,3.619,248.016-14.887,248.115-13.003c0.143,2.72-210.867,12.054-210.783,13.65
			c0.137,2.622,211.744-13.275,211.858-11.103c0.123,2.353-168.606,8.511-168.481,10.896c0.107,2.045,166.581-11.196,166.709-8.736
			c0.08,1.537-119.889,7.424-119.803,9.065c0.085,1.62,123.196-7.378,123.244-6.459c0.032,0.614-93.034,5.726-92.969,6.963
			c0.066,1.258,92.043-5.768,92.093-4.826c0.019,0.366-40.832,4.822-40.813,5.175c0.017,0.325,41.358-2.675,41.386-2.169"/>
		<g>
			<path fill="none" stroke="#6D6E71" stroke-width="2" stroke-linecap="round" stroke-linejoin="round" d="M163.589,211.764
				c0.014,0.271,20.436-1.263,20.446-1.071c0.015,0.273,33.738,0.488,33.762,0.945c0.005,0.098,13.674-0.835,13.68-0.717
				c0.012,0.232,40.871,1.321,40.891,1.692c0.007,0.134,14.091-0.938,14.101-0.739c0.017,0.324,64.265,0.141,64.29,0.604
				c0.007,0.128,14.368-0.882,14.375-0.753c0.016,0.306,23.619,0.966,23.629,1.15c0.001,0.01,3.812-0.212,3.812-0.199
				c0.003,0.059-2.807,3.427-2.805,3.469c0.001,0.012,2.112-0.124,2.113-0.111c0.003,0.054-2.043,3.023-2.04,3.068
				c0,0.009,0.941-0.059,0.941-0.05c0.001,0.021-2.345,2.569-2.343,2.608c0,0.007,4.115-0.229,4.116-0.216
				c0.001,0.024-3.31,3.432-3.306,3.494c0,0.006,0.596-0.036,0.596-0.031c0.001,0.03,0.011,3.328,0.013,3.369
				c0.001,0.009,0.94-0.056,0.94-0.05c0.002,0.031-0.575,2.433-0.574,2.454c0,0.008,2.144-0.126,2.145-0.112
				c0.003,0.054-2.501,3.425-2.498,3.479c0,0.009,0.938-0.061,0.938-0.049c0.002,0.04-2.604,3.512-2.603,3.537
				c0.001,0.013,4.292-0.23,4.292-0.225c0.002,0.036-4.351,3.581-4.347,3.661c0.001,0.013,1.407-0.086,1.407-0.073
				c0.002,0.026,1.034,2.051,1.035,2.082c0.001,0.008,0.755-0.047,0.755-0.039"/>
			<path fill="none" stroke="#6D6E71" stroke-width="2" stroke-linecap="round" stroke-linejoin="round" d="M139.657,212.039
				c0.017,0.331,22.788-1.442,22.801-1.195c0.013,0.255-21.773,3.103-21.756,3.429c0,0.01,0.033-0.013,0.034-0.002
				c0.003,0.062-1.846,3.744-1.843,3.792c0,0.01,0.885-0.057,0.885-0.046c0.002,0.048-1.208,3.599-1.206,3.642
				c0,0.006,1.891-0.112,1.892-0.1c0.002,0.046-2.108,3.083-2.106,3.115c0,0.009,1.68-0.093,1.681-0.088
				c0.001,0.034-1.315,2.337-1.313,2.364c0,0.011,1.663-0.098,1.663-0.087c0.001,0.023-1.48,2.677-1.478,2.721
				c0,0.006,0.886-0.059,0.887-0.047c0.001,0.026-2.544,2.105-2.542,2.155c0,0.011,4.517-0.248,4.517-0.236
				c0.003,0.057-3.22,3-3.217,3.061c0,0.006,1.873-0.107,1.874-0.099c0.001,0.03-1.538,2.432-1.536,2.476
				c0,0.009,0.904-0.055,0.905-0.048c0.002,0.034-2.801,2.641-2.8,2.665c0,0.013,4.566-0.25,4.567-0.239
				c0.001,0.024-2.674,3.529-2.672,3.575c0,0.014,0.911-0.055,0.911-0.048c0.017,0.328,25.336,1.085,25.346,1.276
				c0.008,0.151,10.501-0.675,10.508-0.551c0.021,0.396,28.344,0.18,28.365,0.581c0.011,0.207,17.158-1.15,17.171-0.9
				c0.023,0.436,33.955,0.543,33.979,1.007c0.008,0.167,12.985-0.775,12.99-0.681c0.006,0.113,17.146,0.964,17.158,1.191
				c0.009,0.172,12.033-0.76,12.04-0.631c0.016,0.305,34.111,0.955,34.126,1.248c0.007,0.134,17.539-1.128,17.55-0.92"/>
		</g>
	</g>
</g>
<g opacity="0.7">
	<g>
		<path fill="none" stroke="#8DC63F" stroke-width="2" stroke-linecap="round" stroke-linejoin="round" d="M530.127,212.489
			c0.021,0.396,27.444-1.736,27.46-1.439c0.017,0.309-26.436,3.278-26.415,3.673c0.037,0.702,68.481-4.5,68.529-3.592
			c0.053,1.016-68.927,6.524-68.886,7.306c0.073,1.404,119.048-7.662,119.122-6.242c0.08,1.531-120.967,8.552-120.896,9.913
			c0.051,0.974,151.83-10.108,151.942-7.963c0.098,1.865-152.226,9.662-152.157,10.979c0.076,1.443,151.687-8.777,151.729-7.951
			c0.1,1.903-151.441,8.717-151.362,10.228c0.099,1.894,151.616-9.712,151.709-7.951c0.06,1.144-151.635,8.457-151.523,10.585
			c0.053,1.006,150.826-9.882,150.93-7.91c0.064,1.22-152.703,7.762-152.585,10.019c0.103,1.953,154.458-10.021,154.559-8.1
			c0.103,1.962-153.366,8.85-153.258,10.922c0.055,1.046,151.843-9.272,151.911-7.961c0.084,1.596-150.197,8.008-150.079,10.262
			c0.078,1.498,148.073-8.831,148.13-7.764c0.069,1.338-151.57,9.48-151.52,10.459c0.109,2.07,154.501-9.984,154.6-8.103
			c0.044,0.835-150.928,9.763-150.846,11.341c0.114,2.178,148.062-8.895,148.121-7.763c0.075,1.436-111.188,7.588-111.145,8.43
			c0.073,1.399,112.166-7.042,112.227-5.882c0.064,1.219-87.229,5.4-87.164,6.635c0.056,1.047,85.328-5.731,85.394-4.475
			c0.027,0.509-39.486,4.312-39.458,4.855c0.029,0.561,42.883-2.566,42.899-2.248"/>
		<g>
			<path fill="none" stroke="#6D6E71" stroke-width="2" stroke-linecap="round" stroke-linejoin="round" d="M557.673,211.5
				c0.012,0.236,17.842-1.103,17.85-0.936c0.014,0.246,30.244,0.719,30.266,1.129c0.005,0.087,12.227-0.747,12.231-0.641
				c0.013,0.244,42.913,1.195,42.933,1.585c0.01,0.186,19.186-1.279,19.199-1.006c0.002,0.021-1.026,3.997-1.024,4.027
				c0,0.009,2.648-0.148,2.648-0.139c0.003,0.051-3.001,2.516-3,2.546c0.001,0.01,3.809-0.212,3.81-0.199
				c0.003,0.06-2.804,3.426-2.802,3.469c0.001,0.012,2.109-0.123,2.11-0.11c0.003,0.054-2.04,3.022-2.037,3.067
				c0,0.009,0.938-0.058,0.938-0.049c0.001,0.021-2.343,2.568-2.341,2.607c0,0.007,4.113-0.229,4.114-0.216
				c0.001,0.024-3.307,3.432-3.303,3.494c0,0.006,0.593-0.036,0.593-0.031c0.001,0.03,0.013,3.328,0.015,3.369
				c0.001,0.009,0.938-0.055,0.938-0.049c0.002,0.031-0.573,2.431-0.571,2.453c0,0.008,2.141-0.126,2.142-0.112
				c0.003,0.055-2.498,3.426-2.495,3.48c0,0.009,0.935-0.062,0.935-0.05c0.003,0.04-2.601,3.513-2.6,3.538
				c0.001,0.012,4.288-0.23,4.288-0.225"/>
			<path fill="none" stroke="#6D6E71" stroke-width="2" stroke-linecap="round" stroke-linejoin="round" d="M529.601,212.045
				c0.021,0.407,28.137-1.779,28.153-1.475c0.017,0.316-27.124,3.304-27.103,3.709c0,0.01,0.086-0.017,0.086-0.004
				c0.004,0.062-1.892,3.745-1.89,3.793c0.001,0.011,0.935-0.06,0.936-0.049c0.002,0.049-1.253,3.601-1.251,3.644
				c0.001,0.007,1.939-0.114,1.94-0.102c0.002,0.047-2.151,3.086-2.149,3.118c0,0.01,1.726-0.096,1.726-0.091
				c0.002,0.034-1.356,2.339-1.355,2.366c0.001,0.012,1.707-0.101,1.708-0.09c0.001,0.023-1.521,2.681-1.518,2.723
				c0,0.008,0.928-0.06,0.928-0.048c0.002,0.027-2.582,2.107-2.58,2.157c0.001,0.012,4.558-0.251,4.559-0.239
				c0.003,0.057-3.256,3.002-3.253,3.062c0.001,0.007,1.911-0.108,1.912-0.101c0.001,0.031-1.572,2.434-1.57,2.478
				c0.001,0.01,0.941-0.056,0.941-0.05c0.002,0.034-2.832,2.643-2.831,2.668c0.001,0.013,4.601-0.253,4.601-0.241
				c0.002,0.024-2.703,3.53-2.701,3.577c0.001,0.014,0.943-0.057,0.943-0.05c0.016,0.299,23.138,1.216,23.146,1.392
				c0.009,0.17,12.152-0.779,12.16-0.638c0.011,0.212,15.129,1.06,15.14,1.274c0.008,0.148,12.428-0.832,12.438-0.652
				c0.021,0.389,30.299,0.783,30.321,1.198c0.01,0.198,15.338-0.917,15.344-0.805"/>
		</g>
	</g>
</g>
<text transform="matrix(1 0 0 1 10.5024 224.084)"><tspan x="0" y="0" font-family="'MarkerFelt-Thin'" font-size="22.5">B</tspan><tspan x="11.025" y="0" font-family="'MarkerFelt-Thin'" font-size="14">score</tspan><tspan x="37.904" y="0" font-family="'MarkerFelt-Thin'" font-size="22.5"> </tspan><tspan x="43.529" y="0" fill="#BE1E2D" font-family="'MarkerFelt-Thin'" font-size="22.5">map</tspan><tspan x="79.753" y="0" font-family="'MarkerFelt-Thin'" font-size="22.5"> A</tspan><tspan x="20.752" y="27" font-family="'MarkerFelt-Thin'" font-size="22.5">(mean)</tspan></text>
<text transform="matrix(1 0 0 1 182.9106 236.5859)" font-family="'MarkerFelt-Thin'" font-size="22.5">mean(3, 1, 5) = 3</text>
<text transform="matrix(1 0 0 1 541.5225 236.5859)" font-family="'MarkerFelt-Thin'" font-size="22.5">mean(4, 6) = 5</text>
<g opacity="0.7">
	<g>
		<path fill="none" stroke="#8DC63F" stroke-width="2" stroke-linecap="round" stroke-linejoin="round" d="M140.127,280.49
			c0.007,0.136,8.974-0.572,8.979-0.471c0.005,0.098-7.94,2.58-7.933,2.705c0.039,0.75,73.254-4.814,73.305-3.842
			c0.057,1.085-73.707,6.721-73.663,7.555c0.077,1.464,124.161-7.989,124.239-6.511c0.083,1.598-126.086,8.765-126.012,10.183
			c0.059,1.128,175.912-11.714,176.042-9.227c0.113,2.16-176.337,10.718-176.257,12.242c0.124,2.362,247.719-14.336,247.79-12.985
			c0.163,3.111-247.553,12.793-247.423,15.262c0.165,3.148,251.558-16.119,251.711-13.191c0.1,1.896-251.711,12.296-251.526,15.825
			c0.088,1.674,250.761-16.429,250.933-13.151c0.106,2.02-252.784,11.526-252.588,15.26c0.17,3.249,254.397-16.533,254.564-13.341
			c0.17,3.241-253.443,12.74-253.264,16.165c0.091,1.736,251.806-15.386,251.92-13.203c0.139,2.657-250.284,11.749-250.087,15.502
			c0.131,2.492,248.047-14.778,248.14-13.005c0.116,2.222-251.615,14.077-251.53,15.701c0.18,3.441,254.45-16.475,254.614-13.344
			c0.072,1.387-250.998,13.958-250.86,16.582c0.19,3.619,248.032-14.887,248.131-13.004c0.146,2.79-216.31,12.299-216.224,13.937
			c0.141,2.688,217.186-13.617,217.302-11.389c0.134,2.548-182.504,9.043-182.369,11.625c0.116,2.216,180.456-12.13,180.596-9.465
			c0.092,1.755-136.805,8.079-136.707,9.952c0.096,1.842,140.088-8.391,140.143-7.345c0.039,0.73-110.542,6.409-110.465,7.88
			c0.079,1.495,109.527-6.863,109.585-5.743c0.026,0.511-57.073,5.533-57.047,6.026c0.023,0.454,57.576-3.728,57.613-3.02"/>
		<g>
			<path fill="none" stroke="#6D6E71" stroke-width="2" stroke-linecap="round" stroke-linejoin="round" d="M149.675,280.513
				c0.023,0.438,33.593-2.07,33.609-1.761c0.017,0.321,39.616,0.101,39.645,0.637c0.005,0.097,13.501-0.825,13.507-0.708
				c0.011,0.217,37.854,1.507,37.873,1.851c0.006,0.113,11.958-0.794,11.966-0.627c0.012,0.225,44.454,1.322,44.47,1.644
				c0.009,0.164,17.908-1.103,17.917-0.939c0.027,0.521,40.086-0.024,40.102,0.288c0.001,0.01,3.812-0.213,3.812-0.2
				c0.003,0.06-2.808,3.427-2.806,3.469c0.001,0.013,2.113-0.123,2.114-0.11c0.003,0.054-2.044,3.023-2.041,3.067
				c0,0.009,0.942-0.058,0.942-0.049c0.001,0.021-2.346,2.568-2.344,2.607c0,0.007,4.116-0.229,4.117-0.216
				c0.001,0.024-3.311,3.432-3.307,3.494c0,0.006,0.596-0.036,0.597-0.031c0.001,0.03,0.01,3.328,0.012,3.369
				c0.001,0.01,0.941-0.055,0.941-0.049c0.002,0.031-0.577,2.432-0.576,2.453c0,0.008,2.146-0.126,2.146-0.112
				c0.003,0.056-2.503,3.426-2.5,3.48c0,0.009,0.939-0.062,0.939-0.05c0.003,0.041-2.605,3.513-2.604,3.538
				c0.001,0.013,4.294-0.23,4.294-0.225c0.002,0.036-4.353,3.581-4.349,3.661c0.001,0.013,1.41-0.087,1.41-0.074
				c0.002,0.033,1.03,2.68,1.033,2.719c0,0.008,0.758-0.048,0.758-0.04"/>
			<path fill="none" stroke="#6D6E71" stroke-width="2" stroke-linecap="round" stroke-linejoin="round" d="M139.657,280.021
				c0.007,0.134,8.972-0.572,8.977-0.471c0.005,0.097-7.938,2.58-7.932,2.704c0,0.009,0.035-0.014,0.036-0.002
				c0.003,0.062-1.848,3.743-1.846,3.791c0,0.011,0.891-0.057,0.891-0.047c0.002,0.049-1.214,3.599-1.211,3.643
				c0,0.006,1.899-0.113,1.899-0.1c0.002,0.046-2.116,3.083-2.115,3.115c0,0.009,1.692-0.094,1.692-0.089
				c0.001,0.034-1.327,2.338-1.326,2.364c0.001,0.012,1.676-0.097,1.677-0.088c0.001,0.023-1.493,2.679-1.491,2.722
				c0,0.007,0.901-0.059,0.902-0.047c0.001,0.027-2.56,2.107-2.557,2.156c0,0.012,4.534-0.249,4.534-0.238
				c0.003,0.057-3.237,3.001-3.234,3.062c0,0.007,1.893-0.106,1.894-0.1c0.001,0.031-1.558,2.433-1.556,2.477
				c0,0.01,0.926-0.054,0.927-0.048c0.002,0.034-2.823,2.642-2.822,2.667c0,0.013,4.591-0.253,4.591-0.241
				c0.001,0.024-2.699,3.53-2.696,3.577c0,0.014,0.938-0.057,0.938-0.05c0.002,0.035,0.927,2.535,0.928,2.556
				c0.02,0.373,28.571-1.807,28.587-1.498c0.017,0.314,22.458,0.571,22.475,0.89c0.01,0.187,15.404-1.031,15.416-0.808
				c0.021,0.399,31.178,0.726,31.2,1.152c0.008,0.162,12.625-0.755,12.63-0.662c0.006,0.109,16.64,0.996,16.652,1.218
				c0.009,0.17,11.976-0.756,11.983-0.628c0.016,0.306,34.314,0.942,34.33,1.236c0.007,0.146,19.089-1.228,19.101-1.001
				c0.038,0.721,49.839-0.191,49.855,0.116c0.006,0.111,7.657-0.496,7.662-0.402"/>
		</g>
	</g>
</g>
<g opacity="0.7">
	<g>
		<path fill="none" stroke="#8DC63F" stroke-width="2" stroke-linecap="round" stroke-linejoin="round" d="M530.128,280.491
			c0.007,0.135,8.972-0.572,8.977-0.471c0.005,0.098-7.938,2.58-7.932,2.705c0.033,0.639,62.353-4.1,62.396-3.271
			c0.049,0.925-62.791,6.271-62.754,6.983c0.069,1.313,111.15-7.156,111.22-5.829c0.075,1.433-113.059,8.228-112.991,9.5
			c0.051,0.974,151.831-10.108,151.943-7.963c0.098,1.865-152.229,9.663-152.159,10.979c0.075,1.443,151.69-8.778,151.734-7.952
			c0.1,1.904-151.447,8.718-151.367,10.229c0.099,1.894,151.624-9.713,151.716-7.951c0.061,1.143-151.642,8.457-151.53,10.584
			c0.053,1.008,150.835-9.882,150.938-7.91c0.063,1.22-152.712,7.763-152.594,10.02c0.102,1.954,154.469-10.021,154.569-8.101
			c0.104,1.962-153.378,8.851-153.269,10.924c0.055,1.045,151.856-9.274,151.925-7.962c0.084,1.596-150.21,8.007-150.092,10.261
			c0.078,1.5,148.089-8.831,148.145-7.764c0.07,1.339-151.586,9.482-151.535,10.46c0.108,2.071,154.52-9.985,154.618-8.104
			c0.044,0.836-150.947,9.764-150.864,11.343c0.114,2.177,148.077-8.896,148.137-7.764c0.07,1.345-104.136,7.271-104.094,8.06
			c0.068,1.312,105.114-6.6,105.171-5.512c0.062,1.19-85.251,5.324-85.188,6.532c0.054,1.021,83.351-5.601,83.415-4.372
			c0.022,0.431-33.384,4.076-33.36,4.535c0.025,0.481,36.782-2.201,36.797-1.928"/>
		<g>
			<path fill="none" stroke="#6D6E71" stroke-width="2" stroke-linecap="round" stroke-linejoin="round" d="M539.548,280.521
				c0.012,0.218,16.413-1.015,16.421-0.86c0.02,0.364,44.822-0.243,44.854,0.363c0.004,0.087,12.258-0.749,12.264-0.643
				c0.012,0.237,41.618,1.275,41.639,1.653c0.013,0.248,25.406-1.696,25.426-1.333c0.001,0.021-1.027,3.998-1.026,4.028
				c0.001,0.009,2.649-0.148,2.65-0.139c0.002,0.051-3.003,2.516-3.001,2.546c0,0.01,3.811-0.212,3.811-0.199
				c0.004,0.06-2.806,3.427-2.804,3.469c0.001,0.012,2.112-0.124,2.112-0.111c0.003,0.054-2.041,3.023-2.039,3.068
				c0.001,0.009,0.941-0.059,0.942-0.049c0.001,0.021-2.347,2.568-2.345,2.607c0.001,0.007,4.117-0.229,4.117-0.216
				c0.002,0.024-3.309,3.432-3.306,3.494c0,0.006,0.596-0.036,0.596-0.031c0.002,0.03,0.011,3.328,0.013,3.369
				c0,0.009,0.94-0.056,0.941-0.05c0.001,0.031-0.578,2.433-0.577,2.454c0.001,0.008,2.146-0.126,2.146-0.112
				c0.003,0.055-2.503,3.426-2.5,3.48c0.001,0.008,0.94-0.062,0.941-0.05c0.002,0.04-2.607,3.513-2.605,3.538
				c0,0.013,4.293-0.231,4.294-0.226"/>
			<path fill="none" stroke="#6D6E71" stroke-width="2" stroke-linecap="round" stroke-linejoin="round" d="M529.658,280.021
				c0.007,0.135,8.971-0.572,8.976-0.471c0.005,0.097-7.938,2.58-7.931,2.704c0.001,0.009,0.033-0.014,0.034-0.002
				c0.003,0.062-1.847,3.744-1.844,3.792c0,0.01,0.885-0.057,0.885-0.047c0.003,0.049-1.209,3.599-1.206,3.643
				c0,0.005,1.892-0.112,1.892-0.1c0.003,0.046-2.108,3.083-2.106,3.115c0.001,0.008,1.681-0.094,1.682-0.089
				c0.002,0.034-1.316,2.338-1.314,2.364c0,0.012,1.663-0.097,1.663-0.087c0.002,0.023-1.48,2.678-1.479,2.721
				c0,0.007,0.887-0.059,0.888-0.047c0.001,0.027-2.545,2.107-2.542,2.155c0,0.012,4.517-0.248,4.517-0.236
				c0.003,0.057-3.22,3.001-3.217,3.061c0,0.006,1.874-0.106,1.874-0.099c0.002,0.031-1.539,2.433-1.536,2.476
				c0,0.01,0.904-0.054,0.904-0.048c0.002,0.034-2.801,2.641-2.8,2.666c0.001,0.012,4.566-0.251,4.567-0.239
				c0.001,0.024-2.675,3.528-2.672,3.575c0.001,0.013,0.91-0.055,0.911-0.048c0.001,0.035,0.953,2.534,0.954,2.555
				c0.027,0.527,41.183-2.597,41.205-2.159c0.01,0.187,13.375,1.175,13.385,1.365c0.006,0.108,9.106-0.608,9.113-0.478
				c0.021,0.386,30.076,0.799,30.098,1.211c0.013,0.247,19.113-1.144,19.12-1.002c0.009,0.158,24.16,0.502,24.177,0.822
				c0.01,0.181,12.637-0.797,12.645-0.662"/>
		</g>
	</g>
</g>
<text transform="matrix(1 0 0 1 10.5024 292.5625)"><tspan x="0" y="0" font-family="'MarkerFelt-Thin'" font-size="22.5">B</tspan><tspan x="11.025" y="0" font-family="'MarkerFelt-Thin'" font-size="14">score</tspan><tspan x="37.904" y="0" font-family="'MarkerFelt-Thin'" font-size="22.5"> </tspan><tspan x="43.529" y="0" fill="#BE1E2D" font-family="'MarkerFelt-Thin'" font-size="22.5">map </tspan><tspan x="85.378" y="0" font-family="'MarkerFelt-Thin'" font-size="22.5">A</tspan><tspan x="25.927" y="27" font-family="'MarkerFelt-Thin'" font-size="22.5">(max)</tspan></text>
<text transform="matrix(1 0 0 1 188.0854 305.0645)" font-family="'MarkerFelt-Thin'" font-size="22.5">max(3, 1, 5) = 5</text>
<text transform="matrix(1 0 0 1 546.6973 305.0645)" font-family="'MarkerFelt-Thin'" font-size="22.5">max(4, 6) = 6</text>
<g>
	<g>
		<g>
			<path fill="none" stroke="#939598" stroke-linecap="round" stroke-linejoin="round" d="M15.006,174.419
				c0.002,0.051,4.894-0.303,4.896-0.256c0.016,0.309,21.848,0.838,21.86,1.07c0.005,0.105,19.046-1.254,19.06-0.999
				c0.03,0.566,64.768,0.13,64.812,0.983c0.012,0.222,21.327-1.211,21.332-1.118c0.002,0.049,4.058,1.076,4.059,1.102
				c0.014,0.26,21.464-1.316,21.474-1.126c0.018,0.341,55.693,0.747,55.715,1.154c0.008,0.152,20.25-1.221,20.258-1.062
				c0.008,0.154,10.217,0.854,10.222,0.941c0.009,0.169,17.084-1.13,17.096-0.896c0.001,0.028,4.013,0.914,4.014,0.94
				c0.012,0.233,17.182-1.039,17.189-0.9c0.032,0.614,62.001,0.606,62.018,0.924c0.005,0.097,20.679-1.206,20.685-1.084
				c0.003,0.054,8.921,0.929,8.928,1.047c0.009,0.168,18.466-1.122,18.474-0.968c0.009,0.173,18.46,0.89,18.468,1.033
				c0.014,0.267,18.787-1.246,18.801-0.985c0.04,0.776,52.926,0.217,52.963,0.926c0.012,0.23,20.707-1.257,20.717-1.086
				c0.001,0.029,2.084,0.943,2.085,0.964c0.01,0.177,15.982-0.986,15.99-0.838c0.021,0.396,63.085,0.229,63.123,0.971
				c0.015,0.271,21.128-1.207,21.134-1.107c0.027,0.524,62.117,0.597,62.146,1.169c0.011,0.19,20.48-1.188,20.487-1.074
				c0.011,0.211,17.549,0.837,17.554,0.932c0.008,0.142,17.474-1.12,17.484-0.916c0.002,0.042,2.808,1.039,2.809,1.062
				c0.003,0.04,5.692-0.329,5.693-0.299"/>
		</g>
	</g>
</g>
</svg>
